<svg xmlns="http://www.w3.org/2000/svg" width="40" height="40"><path fill="#FF6161" fill-rule="evenodd" d="M23.4933535 7.47931616c0 .78384307-.6358856 1.4193754-1.4201645 1.4193754-.7842788 0-1.4198665-.63553233-1.4198665-1.4193754 0-.78384306.6355877-1.41937539 1.4198665-1.41937539.7842789 0 1.4201645.63553233 1.4201645 1.41937539zm10.5889561 0c0 .78384307-.6358856 1.4193754-1.4201644 1.4193754-.7842789 0-1.4198665-.63553233-1.4198665-1.4193754 0-.78384306.6355876-1.41937539 1.4198665-1.41937539.7842788 0 1.4201644.63553233 1.4201644 1.41937539zm0 11.90104284c0 .783843-.6358856 1.4193754-1.4201644 1.4193754-.7842789 0-1.4198665-.6355324-1.4198665-1.4193754 0-.7838431.6355876-1.4193754 1.4198665-1.4193754.7842788 0 1.4201644.6355323 1.4201644 1.4193754zm0 11.9015788c0 .7838431-.6358856 1.4193754-1.4201644 1.4193754-.7842789 0-1.4198665-.6355323-1.4198665-1.4193754s.6355876-1.4193754 1.4198665-1.4193754c.7842788 0 1.4201644.6355323 1.4201644 1.4193754zM23.4933535 19.380359c0 .783843-.6358856 1.4193754-1.4201645 1.4193754-.7842788 0-1.4198665-.6355324-1.4198665-1.4193754 0-.7838431.6355877-1.4193754 1.4198665-1.4193754.7842789 0 1.4201645.6355323 1.4201645 1.4193754zM6.0081669 31.3220234c0-1.9197008 1.52058316-3.5198485 3.4419471-3.5198485 1.920172 0 3.4812802 1.6001477 3.4812802 3.5198485 0 1.8791982-1.5611082 3.439439-3.4812802 3.439439-1.92136394 0-3.4419471-1.5602408-3.4419471-3.439439zm0-11.9015789c0-1.9197007 1.52058316-3.5198484 3.4419471-3.5198484 1.920172 0 3.4812802 1.6001477 3.4812802 3.5198484 0 1.8791983-1.5611082 3.4394391-3.4812802 3.4394391-1.92136394 0-3.4419471-1.5602408-3.4419471-3.4394391zm.06597239-12.61162388c.39571515-1.87860261 2.21368063-3.13120288 4.09362561-2.73540979 1.879051.39519748 3.0769237 2.28243665 2.6812085 4.16074144-.3873717 1.83929133-2.2366249 3.04453933-4.11567595 2.64904413-1.87994496-.3954953-3.04652992-2.23538227-2.65915816-4.07437578zM18.6116648 31.3220234c0-1.9197008 1.5205831-3.5198485 3.4419471-3.5198485 1.920172 0 3.4812802 1.6001477 3.4812802 3.5198485 0 1.8791982-1.5611082 3.439439-3.4812802 3.439439-1.921364 0-3.4419471-1.5602408-3.4419471-3.439439z"/></svg>