<?xml version="1.0" encoding="UTF-8"?>
<svg width="90px" height="39px" viewBox="0 0 90 39" version="1.1" xmlns="http://www.w3.org/2000/svg" xmlns:xlink="http://www.w3.org/1999/xlink">
    <!-- Generator: Sketch 52.5 (67469) - http://www.bohemiancoding.com/sketch -->
    <title>logo-piman-group</title>
    <desc>Created with Sketch.</desc>
    <defs>
        <polygon id="path-1" points="0 0.0653294118 14.5843624 0.0653294118 14.5843624 20.9161059 0 20.9161059"></polygon>
        <polygon id="path-3" points="0.124687059 0.0906776471 5.62548706 0.0906776471 5.62548706 7.41176471 0.124687059 7.41176471"></polygon>
    </defs>
    <g id="Page-1" stroke="none" stroke-width="1" fill="none" fill-rule="evenodd">
        <g id="Accueil" transform="translate(-675.000000, -13.000000)">
            <g id="logo-piman-group" transform="translate(675.000000, 13.000000)">
                <g id="Group-3" transform="translate(-0.000000, 7.171200)">
                    <mask id="mask-2" fill="white">
                        <use xlink:href="#path-1"></use>
                    </mask>
                    <g id="Clip-2"></g>
                    <path d="M7.90657412,0.0653294118 L-8.47058824e-05,0.0653294118 L-8.47058824e-05,17.4863647 L-8.47058824e-05,17.5446 L-8.47058824e-05,18.7228588 L-8.47058824e-05,19.9595647 L-8.47058824e-05,20.9161059 L0.955821176,20.9161059 L2.20777412,20.9161059 C2.73295059,20.9161059 3.16240941,20.4851647 3.16240941,19.9595647 L3.16240941,17.5446 L3.16240941,17.4863647 L3.16240941,12.7159412 L7.90657412,12.7159412 C11.9775388,12.7159412 14.5843624,10.0220824 14.5843624,6.39158824 C14.5843624,2.76024706 11.9775388,0.0653294118 7.90657412,0.0653294118 M7.73123294,9.84568235 L3.16240941,9.84568235 L3.16240941,2.90615294 L7.73123294,2.90615294 C9.92829176,2.90615294 11.42208,4.19410588 11.42208,6.39158824 C11.42208,8.58695294 9.92829176,9.84568235 7.73123294,9.84568235" id="Fill-1" fill="#2B3035" mask="url(#mask-2)"></path>
                </g>
                <path d="M52.4298918,7.23652941 L51.7247153,7.23652941 L51.1789976,7.23652941 C50.6517035,7.23652941 50.0413976,7.62765882 49.8224329,8.10434118 L44.6483859,19.3416353 C44.4285741,19.8185294 44.0647624,19.8195882 43.8426212,19.3441765 L38.5631153,8.10158824 C38.3388565,7.62617647 37.7266447,7.23652941 37.2014682,7.23652941 L37.05768,7.23652941 L35.9499388,7.23652941 L34.9933976,7.23652941 L34.9933976,8.19243529 L34.9933976,10.3844118 L34.9933976,25.8940588 L34.9933976,27.1307647 L34.9933976,28.0873059 L35.9499388,28.0873059 L37.2014682,28.0873059 C37.7266447,28.0873059 38.15568,27.6563647 38.15568,27.1307647 L38.15568,15.1033765 C38.15568,14.5775647 38.3441506,14.5341529 38.5734918,15.0089294 L42.6613976,23.4498706 C42.8903153,23.9225294 43.5065506,24.3100588 44.0336329,24.3100588 L44.4641506,24.3100588 C44.9897506,24.3100588 45.6036565,23.9199882 45.8270682,23.4456353 L49.8141741,15.0123176 C50.0377976,14.5369059 50.2218212,14.5775647 50.2218212,15.1033765 L50.2218212,27.1307647 C50.2218212,27.6563647 50.6517035,28.0873059 51.1789976,28.0873059 L51.7247153,28.0873059 L52.4298918,28.0873059 L53.3843153,28.0873059 L53.3843153,27.1307647 L53.3843153,25.3038706 L53.3843153,10.3844118 L53.3843153,8.19243529 L53.3843153,7.23652941 L52.4298918,7.23652941 Z" id="Fill-4" fill="#2B3035"></path>
                <path d="M88.9165059,7.23652941 L88.9137529,7.23652941 L87.6647647,7.23652941 C87.1374706,7.23652941 86.7084353,7.66747059 86.7084353,8.19243529 L86.7084353,20.9233059 C86.7084353,21.4491176 86.4710471,21.5187882 86.1828353,21.0802235 L77.5993765,8.03467059 C77.3092588,7.59568235 76.6426235,7.23652941 76.1174471,7.23652941 L75.4957059,7.23652941 L75.1295647,7.23652941 L74.1734471,7.23652941 L74.1734471,8.19243529 L74.1734471,10.3844118 L74.1734471,24.7158 L74.1734471,27.1307647 L74.1734471,28.0873059 L75.1295647,28.0873059 L76.0016118,28.0873059 L76.3806706,28.0873059 C76.9066941,28.0873059 77.3367882,27.6563647 77.3367882,27.1307647 L77.3367882,14.3710941 C77.3367882,13.8450706 77.5731176,13.7756118 77.8615412,14.2141765 L86.4469059,27.2872588 C86.7351176,27.7273059 87.4006941,28.0873059 87.9275647,28.0873059 L88.9137529,28.0873059 L89.8700824,28.0873059 L89.8700824,27.1307647 L89.8700824,24.7158 L89.8700824,9.51998824 L89.8700824,8.19243529 L89.8700824,7.23652941 L88.9165059,7.23652941 Z" id="Fill-6" fill="#2B3035"></path>
                <path d="M72.3634941,27.2044588 L64.4212588,8.11874118 C64.2200824,7.63443529 63.8861294,7.63295294 63.6794471,8.11598824 L55.5220588,27.2086941 C55.5212118,27.2086941 55.5212118,27.2086941 55.5212118,27.2097529 L55.1463882,28.0868824 L56.1018706,28.0868824 L56.3108824,28.0868824 L57.1399412,28.0868824 C57.6653294,28.0868824 58.2642,27.6921529 58.4708824,27.2086941 L59.8962706,23.8710706 L68.0949529,23.8710706 L69.4824353,27.2044588 C69.6836118,27.6894 70.2784588,28.0868824 70.8061765,28.0868824 L71.3809059,28.0868824 L71.7754235,28.0868824 L72.7296353,28.0868824 L72.3634941,27.2044588 Z M61.0353529,21.2051647 L63.6735176,15.0292588 C63.8802,14.5460118 64.215,14.5472824 64.4163882,15.0320118 L66.9848824,21.2051647 L61.0353529,21.2051647 Z" id="Fill-8" fill="#2B3035"></path>
                <path d="M32.1275859,7.33881176 L16.1355388,7.33881176 C15.59808,7.33881176 15.32808,7.74349412 15.5349741,8.24008235 L23.6379388,38.5040118 C23.8429271,38.9984824 24.1845035,39.0001765 24.3947859,38.5078235 L32.7201035,8.23584706 C32.9295388,7.74222353 32.6639859,7.33881176 32.1275859,7.33881176 M28.6040329,11.0508353 L24.4500565,27.5182941 C24.2395624,28.0121294 23.8986212,28.0106471 23.6932094,27.5153294 L19.6485035,11.0546471 C19.4416094,10.5582706 19.7113976,10.1540118 20.2484329,10.1540118 L28.0132094,10.1540118 C28.5493976,10.1540118 28.8151624,10.5567882 28.6040329,11.0508353" id="Fill-10" fill="#AF1700"></path>
                <path d="M22.9102306,5.96708471 L23.4974541,5.96708471 C24.0478306,5.96708471 24.57576,5.52830824 24.6725365,4.99106118 L24.7866776,4.35873176 L25.3969835,0.975367059 L25.5731718,0.000190588235 L24.6325129,0.000190588235 L24.5740659,0.000190588235 L23.9868424,0.000190588235 C23.43816,0.000190588235 22.9085365,0.438967059 22.8121835,0.975367059 L22.0873129,4.99106118 C21.9905365,5.52830824 22.3615482,5.96708471 22.9102306,5.96708471" id="Fill-12" fill="#AF1700"></path>
                <path d="M40.0569671,35.9224941 C39.8648965,36.9438353 39.6222141,37.5708706 39.0659082,38.1269647 C38.5403082,38.6527765 37.8425435,38.9359059 37.0943788,38.9359059 C35.6380729,38.9359059 34.8695788,37.9651765 34.8695788,36.8932235 C34.8695788,36.4785882 34.9504729,35.9326588 35.0819788,35.2753412 C35.41572,33.5462824 35.5876729,33.0103059 36.1638847,32.4338824 C36.6998612,31.8979059 37.4380729,31.6147765 38.2167318,31.6147765 C39.1772965,31.6147765 39.7535082,32.0192471 40.1783082,32.5956706 L39.1571788,33.4348941 C38.8941671,33.0304235 38.6110376,32.7877412 38.1358376,32.7877412 C37.7212024,32.7877412 37.3874612,32.9596941 37.1549435,33.1922118 C36.8010847,33.5462824 36.6594141,34.0619294 36.4167318,35.2753412 C36.2852259,35.9125412 36.2142847,36.4381412 36.2142847,36.7922118 C36.2142847,37.5200471 36.7199788,37.7629412 37.1850141,37.7629412 C37.8222141,37.7629412 38.4795318,37.2875294 38.6614376,36.3168 L38.7222141,36.0033882 L37.4683553,36.0033882 L37.6807553,34.8909882 L40.2592024,34.8909882 L40.0569671,35.9224941 Z" id="Fill-14" fill="#AF1700"></path>
                <path d="M44.5367012,32.8585129 L43.3235012,32.8585129 L42.9188188,34.8505835 L44.1324424,34.8505835 C45.0423953,34.8505835 45.3761365,34.1528188 45.3761365,33.6776188 C45.3761365,33.1619718 45.0828424,32.8585129 44.5367012,32.8585129 M45.0322306,35.81136 L46.0232894,38.8751718 L44.5570306,38.8751718 L43.7178071,35.9629835 L42.7064188,35.9629835 L42.1098776,38.8751718 L40.7751247,38.8751718 L42.2210541,31.6753835 L44.7491012,31.6753835 C46.2051953,31.6753835 46.7108894,32.5957129 46.7108894,33.6068894 C46.7108894,34.4967247 46.1547953,35.4371718 45.0322306,35.81136" id="Fill-16" fill="#AF1700"></path>
                <g id="Group-20" transform="translate(47.223529, 31.524141)">
                    <mask id="mask-4" fill="white">
                        <use xlink:href="#path-3"></use>
                    </mask>
                    <g id="Clip-19"></g>
                    <path d="M3.36045176,1.26364235 C2.97631059,1.26364235 2.63240471,1.42543059 2.37955765,1.69839529 C2.10638118,1.99168941 1.94459294,2.41627765 1.68179294,3.75124235 C1.56045176,4.36790118 1.46939294,4.91404235 1.46939294,5.26811294 C1.46939294,5.90510118 1.90414588,6.23884235 2.38972235,6.23884235 C2.77386353,6.23884235 3.11776941,6.07705412 3.37061647,5.80387765 C3.64358118,5.51079529 3.80536941,5.08599529 4.06838118,3.75124235 C4.18951059,3.13437176 4.27040471,2.58823059 4.27040471,2.23437176 C4.27040471,1.59738353 3.84581647,1.26364235 3.36045176,1.26364235 M5.40313412,3.75124235 C5.12995765,5.13660706 4.93788706,5.95550118 4.30068706,6.59270118 C3.76492235,7.12867765 2.98626353,7.41180706 2.28849882,7.41180706 C0.923251765,7.41180706 0.124687059,6.48152471 0.124687059,5.36912471 C0.124687059,5.04554824 0.195416471,4.56018353 0.34704,3.75124235 C0.620216471,2.36587765 0.812287059,1.54677176 1.44927529,0.909783529 C1.98525176,0.373807059 2.75374588,0.0906776471 3.45151059,0.0906776471 C4.81654588,0.0906776471 5.62548706,1.02096 5.62548706,2.13336 C5.62548706,2.45693647 5.55454588,2.94230118 5.40313412,3.75124235" id="Fill-18" fill="#AF1700" mask="url(#mask-4)"></path>
                </g>
                <path d="M58.6939129,36.4078588 C58.3400541,38.1775765 57.14676,38.9359059 55.8120071,38.9359059 C54.5884306,38.9359059 53.6177012,38.1572471 53.6177012,36.8832706 C53.6177012,36.6909882 53.6581482,36.4180235 53.6884306,36.2664 L54.6085482,31.6753412 L55.9435129,31.6753412 L55.0030659,36.3472941 C54.9827365,36.4686353 54.9524541,36.6403765 54.9524541,36.7922118 C54.9524541,37.2875294 55.2254188,37.7527765 55.9028541,37.7527765 C56.6713482,37.7527765 57.1973718,37.2269647 57.3894424,36.2763529 L58.3097718,31.6753412 L59.6443129,31.6753412 L58.6939129,36.4078588 Z" id="Fill-21" fill="#AF1700"></path>
                <path d="M63.4770212,32.8585129 L62.2434918,32.8585129 L61.8288565,34.9011953 L63.0221506,34.9011953 C63.8916565,34.9011953 64.2859624,34.2339247 64.2859624,33.6877835 C64.2859624,33.2327012 64.0735624,32.8585129 63.4770212,32.8585129 M62.9713271,36.0843247 L61.5859624,36.0843247 L61.0298682,38.8751718 L59.6953271,38.8751718 L61.1412565,31.6753835 L63.6995859,31.6753835 C64.9229506,31.6753835 65.63088,32.4540424 65.63088,33.5766071 C65.63088,34.8607482 64.7005976,36.0843247 62.9713271,36.0843247" id="Fill-23" fill="#AF1700"></path>
            </g>
        </g>
    </g>
</svg>